<svg width="168" height="30" viewBox="0 0 168 30" fill="none" xmlns="http://www.w3.org/2000/svg">
<g clip-path="url(#clip0_501:7267)">
<path d="M50.1465 26.1548H0V29.9H50.1465V26.1548Z" fill="#282828"/>
<path d="M4.02952 0.284424C8.20736 0.284424 10.6547 3.01609 10.6547 9.78963V13.8191C10.6547 20.5803 8.20736 23.3244 4.02952 23.3244H0V0.284424H4.02952ZM4.17784 19.7151H4.61046C5.73526 19.7151 6.34092 18.9117 6.34092 17.6756V5.78484C6.34092 4.54879 5.73526 3.74536 4.61046 3.74536H4.17784V19.7151Z" fill="#282828"/>
<path d="M19.2826 0.284424V4.02965H15.8216V9.78963H18.8499V13.5349H15.8216V19.5791H19.2826V23.3244H11.5078V0.284424H19.2826Z" fill="#282828"/>
<path d="M28.1323 0.284424L30.2954 23.0277V23.312H26.2658L25.7714 17.8487H24.1646L23.6701 23.312H19.6406V23.0277L21.8037 0.284424H28.1323ZM25.7467 14.1034L25.1163 6.19273H24.832L24.2016 14.1034H25.7467Z" fill="#282828"/>
<path d="M39.1207 0.284424V4.02965H36.2407V23.312H31.9269V4.02965H29.0469V0.284424H39.1207Z" fill="#282828"/>
<path d="M44.1017 0.284424V9.78963H45.9681V0.284424H50.1459V23.312H45.9681V13.5225H44.1017V23.312H39.9238V0.284424H44.1017Z" fill="#282828"/>
<path d="M63.2503 0.284424L64.1156 13.2382H64.3999L64.9808 0.284424H68.5777V0.568715L67.2798 23.312H62.8177L61.9525 13.2382H61.6682L60.803 23.312H56.3408L55.043 0.568715V0.284424H58.6399L59.2208 13.2382H59.5051L60.3703 0.284424H63.2503Z" fill="#282828"/>
<path d="M73.7533 0.284424V23.312H69.4395V0.284424H73.7533Z" fill="#282828"/>
<path d="M84.6324 0.284424V4.02965H81.7524V23.312H77.4386V4.02965H74.5586V0.284424H84.6324Z" fill="#282828"/>
<path d="M89.6134 0.284424V9.78963H91.4798V0.284424H95.6577V23.312H91.4798V13.5225H89.6134V23.312H85.4355V0.284424H89.6134Z" fill="#282828"/>
<path d="M104.867 0.284424C109.045 0.284424 111.493 3.01609 111.493 9.78963V13.8191C111.493 20.5803 109.045 23.3244 104.867 23.3244H100.838V0.284424H104.867ZM105.016 19.7151H105.448C106.573 19.7151 107.179 18.9117 107.179 17.6756V5.78484C107.179 4.54879 106.573 3.74536 105.448 3.74536H105.016V19.7151Z" fill="#282828"/>
<path d="M116.781 0.284424V23.312H112.467V0.284424H116.781Z" fill="#282828"/>
<path d="M124.816 9.07259H129.129V8.77594C129.018 8.3186 128.981 7.71294 128.981 7.1938C128.981 2.87999 127.201 0 123.74 0C120.082 0 117.758 3.02832 117.758 10.939V14.5359C117.758 21.5938 120.378 23.6085 122.566 23.6085C124.729 23.6085 125.619 22.1129 125.817 20.3577H126.101L126.818 23.3242H128.833V13.9673V11.211H123.753V14.9315H124.667V18.6767C124.667 19.4801 124.321 19.9993 123.629 19.9993C122.937 19.9993 122.504 19.4801 122.504 18.5284V4.91947C122.504 3.96771 122.937 3.44857 123.629 3.44857C124.321 3.44857 124.667 3.96771 124.667 4.77114V7.76238C124.667 8.34332 124.729 8.77594 124.816 9.07259Z" fill="#282828"/>
<path d="M133.741 0.284424L136.188 11.8044H136.472L136.04 0.284424H140.069V23.312H136.336L133.889 11.792H133.605L134.037 23.312H130.008V0.284424H133.741Z" fill="#282828"/>
<path d="M145.544 0.284424V23.312H141.23V0.284424H145.544Z" fill="#282828"/>
<path d="M156.421 0.284424V4.02965H153.541V23.312H149.228V4.02965H146.348V0.284424H156.421Z" fill="#282828"/>
<path d="M167.161 0.284424V0.568715L164.281 15.1046V23.312H159.671V15.1046L156.791 0.581075V0.284424H160.821L161.834 7.3917H162.118L163.132 0.284424H167.161Z" fill="#282828"/>
</g>
<defs>
<clipPath id="clip0_501:7267">
<rect width="167.163" height="29.9" fill="white"/>
</clipPath>
</defs>
</svg>
