<svg width="75" height="42" viewBox="0 0 75 42" fill="none" xmlns="http://www.w3.org/2000/svg">
<path d="M54.9794 19.1206C54.9794 29.132 46.8623 37.2412 36.8589 37.2412C26.8474 37.2412 18.7383 29.124 18.7383 19.1206C18.7383 9.11718 26.8474 1 36.8589 1C46.8703 1 54.9794 9.11718 54.9794 19.1206Z" fill="#9C9C9C"/>
<path d="M20.3598 29.4867C20.4887 29.1562 23.7533 29.6318 23.7533 29.6318C23.7533 29.6318 22.1815 32.2273 21.851 32.4692C21.5205 32.719 21.4399 32.9125 21.5769 33.2591C21.7059 33.6057 21.5447 34.4602 21.2626 35.1453C20.9804 35.8386 20.1663 37.8537 20.1663 38.5953C20.1663 39.3369 20.2953 39.7641 20.4162 39.8286C20.529 39.8931 20.8434 40.3687 20.3678 40.7314H17.5304C17.5304 40.7314 17.3128 40.4009 17.5304 40.0382C17.74 39.6755 18.2237 39.6594 18.3526 39.6594C18.4816 39.6594 18.9975 38.6276 19.062 38.3454C19.1265 38.0714 19.1426 37.9021 19.062 37.7409C18.9814 37.5716 19.0136 36.7252 19.3925 36.3303C19.7713 35.9353 20.1502 33.3397 20.0938 32.7996C20.0454 32.2596 19.7472 32.1467 19.9003 31.6308C20.0293 31.123 20.2308 29.8091 20.3598 29.4867ZM31.0161 31.5825C30.9194 31.647 31 31.9613 31 31.9613C31.1612 35.9353 31.9673 37.1444 32.201 37.6361C32.4267 38.1278 32.4509 38.3293 32.201 38.6679C31.9511 39.0145 31.8705 40.0301 31.935 40.5541C31.9995 41.078 31.7738 41.2957 31.7738 41.2957H29.009C28.5656 40.5138 29.0573 40.0946 29.2669 39.9012C29.4845 39.7077 29.0734 39.0306 28.9042 38.8533C28.743 38.6759 28.7913 38.1842 28.7913 38.1842C28.743 35.8708 28.4125 35.0486 28.2512 34.5085C28.082 33.9685 27.7595 33.3881 27.7434 33.1946C27.7273 33.0012 28.5656 32.7029 28.6946 32.6223C28.8236 32.5417 28.5011 31.5905 28.0417 30.6555C27.5822 29.7204 27.4694 28.8015 27.4694 28.8015H33.3295C32.8539 30.4056 31.1128 31.518 31.0161 31.5825ZM29.7747 37.3298C29.8312 37.757 30.081 38.0553 30.2261 38.3293C30.2261 38.3293 30.21 37.2089 29.8634 35.903C29.5168 34.5891 29.3233 34.178 29.3233 34.178C29.3233 34.178 29.7183 36.9026 29.7747 37.3298ZM37.5937 29.8252C37.7388 29.3013 37.7065 28.6564 37.7065 28.6564L34.7402 28.7854C34.7402 28.7854 35.1835 29.2126 34.9175 31.7437C34.6515 34.2748 34.3613 35.2098 34.3935 35.9272C34.4258 36.6527 34.2807 37.3217 34.0469 37.7328C33.8212 38.1439 33.8212 38.3051 34.0469 38.418C34.2807 38.5308 34.45 39.0629 34.4338 39.4336C34.4177 39.8125 34.2081 40.3687 34.6354 40.7153C35.0626 41.0619 35.0948 41.1748 35.4253 41.1587C35.7558 41.1425 36.1669 41.1103 36.5216 41.1587C36.8843 41.207 37.11 41.2393 37.4566 41.1587C37.8032 41.078 37.7388 40.7475 37.5372 40.4654C37.3357 40.1833 37.2067 39.8286 36.9488 39.8286C36.6828 39.8286 36.5699 40.0221 36.2556 39.2886C35.9412 38.547 35.6671 37.4185 35.78 36.959C35.9009 36.5076 37.4486 30.3572 37.5937 29.8252ZM41.745 9.16551C41.0356 8.86727 39.8426 8.13374 39.8426 8.13374C40.3343 6.26364 37.3438 4.9981 37.3438 4.9981C37.4405 4.71598 38.3111 2.65242 37.4405 2.65242C36.5699 2.65242 35.1835 4.42579 35.1835 4.42579H34.8449C34.8449 4.42579 34.8933 4.32906 35.1271 3.22474C35.3528 2.12848 34.8449 2.03981 34.8449 2.03981C33.2731 1.92696 31.7577 4.84495 31.3305 5.53818C30.9032 6.2314 30.6937 7.65815 30.3793 8.24659C30.0649 8.83502 29.8553 9.39122 29.7586 9.77007C29.6619 10.1489 29.1379 11.2129 28.7107 11.8578C28.2835 12.4946 27.9208 14.1068 27.9208 14.1068C27.3404 14.9048 26.9454 16.3557 26.9454 16.3557C23.0359 15.9285 22.1654 18.1291 22.1654 18.1291C17.9335 18.0968 17.474 16.9441 16.6196 15.9285C15.7651 14.9128 15.9264 13.4861 16.5551 12.8412C17.1758 12.2044 18.4252 11.6079 18.7234 11.3339C19.0217 11.0517 18.5461 10.8744 18.5461 10.8744C17.1193 10.8905 15.8216 12.2367 15.4427 12.6961C15.0639 13.1556 14.2417 15.4207 16.0473 17.5245C17.8529 19.6284 20.3114 20.0395 20.5935 20.0072C20.8757 19.975 20.8192 20.0878 20.8192 20.0878C20.4726 20.4989 20.0938 21.8451 20.0938 21.8451L40.2779 21.5952L40.1006 21.0712C39.9232 20.5473 40.1006 20.4667 39.5444 17.9034C38.9882 15.3401 37.771 13.9294 37.6904 13.8166C37.6098 13.7037 37.9403 13.2765 38.1015 13.2443C38.2627 13.212 40.3827 13.1153 40.8905 13.1153C41.3983 13.1153 41.7288 12.6719 41.8417 12.2286C41.9545 11.7853 42.3656 11.2774 42.8251 10.552C43.2926 9.81844 42.4543 9.4557 41.745 9.16551Z" fill="black"/>
<path d="M63.0644 22.7961H57.2204V21.4741H16.6828V22.7961H11L14.2807 26.7459L11 30.6956H24.8161V28.9626H49.2483V30.6956H63.0644L59.7837 26.7459L63.0644 22.7961Z" fill="black"/>
<path d="M24.0669 17.8635C24.3974 17.8635 24.6554 17.9361 24.8408 18.0812L24.5667 18.452C24.4135 18.3472 24.2523 18.2988 24.083 18.2988C23.8573 18.2988 23.6881 18.3794 23.5672 18.5326C23.4462 18.6857 23.3898 18.9195 23.3898 19.2339C23.3898 19.5805 23.4301 19.8223 23.5188 19.9593C23.6478 20.1608 23.8412 20.2656 24.1072 20.2656C24.2926 20.2656 24.47 20.2092 24.6312 20.0883L24.9133 20.4349C24.6795 20.6042 24.3974 20.6848 24.0669 20.6848C23.6478 20.6848 23.3173 20.5639 23.0754 20.314C22.8175 20.0641 22.6885 19.7417 22.6885 19.3387C22.6885 19.0082 22.753 18.726 22.8981 18.4923C23.011 18.2908 23.1802 18.1376 23.3818 18.0328C23.5913 17.9119 23.8251 17.8635 24.0669 17.8635ZM25.8403 20.6848V19.4515H26.6383V20.6848H27.2026V17.92H26.6383V18.992H25.8403V17.92H25.2841V20.6848H25.8403ZM28.2585 20.6848L28.4681 20.0319H29.3387L29.5482 20.6848H30.1931L29.258 17.9119H28.6132L27.6378 20.6848H28.2585ZM28.9114 18.5165C28.9679 18.7663 29.0082 18.9276 29.0323 19.0082C29.1049 19.2822 29.1613 19.4676 29.1936 19.5644H28.6132C28.6696 19.4112 28.718 19.2419 28.7744 19.0485L28.9114 18.5165ZM31.1443 20.6848V19.5321C31.1846 19.5321 31.2087 19.5402 31.241 19.5563C31.2974 19.5805 31.3538 19.6369 31.4183 19.7256C31.4828 19.8142 31.5957 19.9835 31.7488 20.2334C31.8375 20.3785 31.9342 20.5236 32.039 20.6848H32.7725C32.3856 20.0964 32.1357 19.7336 32.0229 19.6127C31.9826 19.5724 31.9423 19.5321 31.8939 19.4999C32.0874 19.4999 32.2486 19.4193 32.3776 19.2742C32.5146 19.1291 32.5791 18.9437 32.5791 18.7422C32.5791 18.5003 32.4985 18.2988 32.3292 18.1537C32.1599 18.0086 31.9423 17.928 31.6682 17.928L30.5075 17.92V20.6848H31.1443V20.6848ZM31.37 18.3633C31.5554 18.3633 31.6924 18.3875 31.773 18.4278C31.8859 18.4842 31.9423 18.589 31.9423 18.7422C31.9423 18.8631 31.902 18.9517 31.8294 19.0162C31.7488 19.0807 31.5957 19.113 31.3538 19.113H31.1443L31.1523 18.3633H31.37ZM33.3287 20.6848H33.9816V17.92H33.3287V20.6848ZM35.1666 18.3794V20.6767H35.7711V18.3794H36.4805L36.5772 17.92H34.4411V18.3794H35.1666V18.3794ZM37.7621 20.6848H38.3667V19.5482L39.2937 17.92H38.6085L38.2377 18.6938C38.1974 18.7825 38.141 18.8953 38.0846 19.0404C38.0443 18.9276 37.9959 18.8147 37.9395 18.6857L37.5687 17.92H36.8674L37.7702 19.5563V20.6848H37.7621ZM41.7039 20.7009L41.9457 19.5644C42.0263 19.1613 42.0746 18.8953 42.0908 18.7663C42.1553 19.121 42.2036 19.3951 42.2359 19.5724L42.5019 20.7009H43.1548L43.8722 17.9038H43.2515L43.0097 18.9598C42.9291 19.3225 42.8727 19.6288 42.8485 19.8787C42.8001 19.5482 42.7517 19.3064 42.7195 19.1452L42.4454 17.9038H41.7925L41.5265 19.0243C41.462 19.2983 41.4056 19.5885 41.3734 19.911C41.3492 19.645 41.2928 19.3467 41.2121 19.0001L40.9542 17.9038H40.3174L41.0267 20.7009H41.7039V20.7009ZM44.5332 20.6767L44.7508 20.0158H45.6617L45.8793 20.6767H46.5484L45.565 17.8958H44.8878L43.8641 20.6767H44.5332ZM45.2183 18.5084C45.2828 18.7583 45.3231 18.9195 45.3473 19.0001C45.4279 19.2742 45.4843 19.4596 45.5166 19.5563H44.904C44.9604 19.4031 45.0168 19.2258 45.0732 19.0404L45.2183 18.5084ZM47.1207 18.3633V20.6687H47.7575V18.3633H48.4991L48.6039 17.9038H46.371V18.3633H47.1207ZM50.0064 17.8474C49.7807 17.8474 49.5711 17.9038 49.3777 18.0167C49.1842 18.1295 49.0311 18.2908 48.9263 18.4842C48.7973 18.718 48.7328 19.0082 48.7328 19.3467C48.7328 19.7578 48.8457 20.0883 49.0794 20.3382C49.3051 20.5881 49.6115 20.717 49.9984 20.717C50.3047 20.717 50.5707 20.6284 50.7803 20.4591L50.5223 20.1044C50.3692 20.2253 50.2079 20.2818 50.0387 20.2818C49.7888 20.2818 49.6115 20.177 49.4986 19.9755C49.418 19.8304 49.3777 19.5885 49.3777 19.2339C49.3777 18.9114 49.4341 18.6696 49.5389 18.5165C49.6437 18.3633 49.8049 18.2827 50.0145 18.2827C50.1757 18.2827 50.3208 18.3311 50.4659 18.4358L50.7238 18.057C50.5465 17.92 50.3047 17.8474 50.0064 17.8474ZM51.8362 20.6767V19.4434H52.6101V20.6767H53.1582V17.9038H52.6101V18.984H51.8362V17.9038H51.2961V20.6767H51.8362ZM18.2793 23.6915V22.8612H21.8744L21.7132 23.6915H20.5202V27.8427H19.5045V23.6915H18.2793ZM23.3898 23.0466C23.0351 23.2401 22.7611 23.5464 22.5596 23.9575C22.358 24.3686 22.2613 24.8441 22.2613 25.3842C22.2613 26.1258 22.4548 26.7384 22.8336 27.2382C23.1964 27.7057 23.7364 27.9395 24.4538 27.9395C24.8408 27.9395 25.1712 27.8669 25.4534 27.7138C26.195 27.3027 26.5658 26.5127 26.5658 25.3439C26.5658 24.562 26.3723 23.9413 25.9934 23.4899C25.6146 23.0385 25.0906 22.8128 24.4216 22.8128C24.0347 22.7967 23.6881 22.8773 23.3898 23.0466ZM25.2841 24.2073C25.3728 24.4814 25.4131 24.8683 25.4131 25.36C25.4131 25.9968 25.3325 26.4563 25.1793 26.7384C25.0261 27.0206 24.7682 27.1656 24.4216 27.1656C24.1798 27.1656 23.9783 27.1092 23.8251 26.9964C23.5268 26.7787 23.3818 26.2387 23.3818 25.3842C23.3818 24.7958 23.4624 24.3444 23.6316 24.022C23.7848 23.7318 24.0427 23.5867 24.4055 23.5867C24.6473 23.5867 24.8488 23.6592 25.0181 23.8124C25.1471 23.9091 25.2357 24.0461 25.2841 24.2073ZM28.8873 27.8508V26.013H29.4354C29.8707 26.013 30.2012 25.9565 30.4349 25.8517C30.709 25.7228 30.9186 25.5293 31.0717 25.2714C31.2249 25.0134 31.2974 24.7152 31.2974 24.3927C31.2974 23.7963 31.0556 23.369 30.58 23.103C30.2898 22.9418 29.8304 22.8612 29.1936 22.8612H27.8797V27.8589H28.8873V27.8508ZM29.5241 23.6592C29.7336 23.6592 29.9029 23.7237 30.0158 23.8607C30.1367 23.9897 30.1931 24.1751 30.1931 24.4089C30.1931 24.6346 30.1528 24.8119 30.0722 24.9328C29.9916 25.0537 29.8948 25.1343 29.782 25.1666C29.7094 25.1827 29.5805 25.1988 29.4031 25.1988H28.8792V23.6592H29.5241V23.6592ZM35.618 27.8508V25.7711C35.6744 25.7792 35.7308 25.7873 35.7792 25.8114C35.8679 25.8517 35.9646 25.9565 36.0694 26.1177C36.1742 26.2709 36.3515 26.5772 36.6014 27.0367C36.7465 27.2946 36.8996 27.5687 37.0689 27.8589H38.2538C37.6332 26.7949 37.2301 26.1419 37.0528 25.9243C36.9883 25.8517 36.9238 25.7792 36.8432 25.7147C37.1495 25.7066 37.4075 25.5696 37.6332 25.3036C37.8508 25.0295 37.9637 24.7071 37.9637 24.3363C37.9637 23.893 37.8266 23.5383 37.5606 23.2723C37.2946 23.0063 36.9399 22.8693 36.4966 22.8693L34.6426 22.8612V27.8589H35.618V27.8508ZM35.9727 23.6673C36.2709 23.6673 36.4805 23.7076 36.6175 23.7801C36.8029 23.8769 36.8996 24.0703 36.8996 24.3444C36.8996 24.562 36.8352 24.7232 36.7142 24.8361C36.5933 24.9489 36.3354 25.0054 35.9565 25.0054H35.618L35.626 23.6592H35.9727V23.6673ZM40.0675 27.8508L40.4222 26.6659H41.8812L42.2359 27.8508H43.316L41.7442 22.8531H40.656L39.0196 27.8508H40.0675ZM41.1718 23.9494C41.2686 24.3927 41.3411 24.691 41.3734 24.828C41.4943 25.3278 41.591 25.6583 41.6474 25.8356H40.6721C40.7607 25.5616 40.8494 25.2472 40.9381 24.9086L41.1718 23.9494ZM44.7508 23.6915V27.8427H45.7665V23.6915H46.9595L47.1207 22.8612H43.5256V23.6915H44.7508ZM51.0382 27.8508V26.9883H49.152V25.6583H50.5626V24.8361H49.1359V23.6834H50.8447L50.9737 22.8693H48.1363V27.8589H51.0382V27.8508ZM53.4403 27.8508C53.7305 27.8508 53.9643 27.8428 54.1577 27.8186C54.6575 27.7702 55.0605 27.5284 55.3749 27.1012C55.7054 26.6417 55.8747 26.0774 55.8747 25.4003C55.8747 24.5137 55.649 23.8527 55.1976 23.4093C54.8912 23.1111 54.5285 22.9499 54.1094 22.9176C53.8675 22.9015 53.5773 22.8854 53.2388 22.8854H52.2312V27.8427H53.4403V27.8508ZM53.7063 23.6834C54.061 23.6834 54.327 23.8204 54.4963 24.1026C54.6655 24.3766 54.7462 24.8441 54.7462 25.5051C54.7462 26.5288 54.4237 27.0447 53.7869 27.0447H53.2469V23.6915H53.7063" fill="white"/>
<path d="M24.0669 17.863C24.3974 17.863 24.6554 17.9356 24.8408 18.0807L24.5667 18.4515C24.4135 18.3467 24.2523 18.2983 24.083 18.2983C23.8573 18.2983 23.6881 18.3789 23.5672 18.5321C23.4462 18.6852 23.3898 18.919 23.3898 19.2334C23.3898 19.58 23.4301 19.8218 23.5188 19.9588C23.6478 20.1604 23.8412 20.2652 24.1072 20.2652C24.2926 20.2652 24.47 20.2087 24.6312 20.0878L24.9133 20.4344C24.6795 20.6037 24.3974 20.6843 24.0669 20.6843C23.6478 20.6843 23.3173 20.5634 23.0754 20.3135C22.8175 20.0636 22.6885 19.7412 22.6885 19.3382C22.6885 19.0077 22.753 18.7256 22.8981 18.4918C23.011 18.2903 23.1802 18.1371 23.3818 18.0323C23.5913 17.9114 23.8251 17.863 24.0669 17.863ZM25.8403 20.6843V19.451H26.6383V20.6843H27.2026V17.9195H26.6383V18.9916H25.8403V17.9195H25.2841V20.6843H25.8403ZM28.2585 20.6843L28.4681 20.0314H29.3387L29.5482 20.6843H30.1931L29.258 17.9114H28.6132L27.6378 20.6843H28.2585ZM28.9114 18.516C28.9679 18.7659 29.0082 18.9271 29.0323 19.0077C29.1049 19.2817 29.1613 19.4671 29.1936 19.5639H28.6132C28.6696 19.4107 28.718 19.2414 28.7744 19.048L28.9114 18.516ZM31.1443 20.6843V19.5316C31.1846 19.5316 31.2087 19.5397 31.241 19.5558C31.2974 19.58 31.3538 19.6364 31.4183 19.7251C31.4828 19.8138 31.5957 19.983 31.7488 20.2329C31.8375 20.378 31.9342 20.5231 32.039 20.6843H32.7725C32.3856 20.0959 32.1357 19.7331 32.0229 19.6122C31.9826 19.5719 31.9423 19.5316 31.8939 19.4994C32.0874 19.4994 32.2486 19.4188 32.3776 19.2737C32.5146 19.1286 32.5791 18.9432 32.5791 18.7417C32.5791 18.4999 32.4985 18.2983 32.3292 18.1532C32.1599 18.0081 31.9423 17.9275 31.6682 17.9275L30.5075 17.9195V20.6843H31.1443V20.6843ZM31.773 18.4273C31.8859 18.4837 31.9423 18.5885 31.9423 18.7417C31.9423 18.8626 31.902 18.9513 31.8294 19.0157C31.7488 19.0802 31.5957 19.1125 31.3538 19.1125H31.1443L31.1523 18.3628H31.37C31.5473 18.3628 31.6843 18.387 31.773 18.4273ZM33.3287 20.6843H33.9816V17.9195H33.3287V20.6843ZM35.1666 18.3789V20.6763H35.7711V18.3789H36.4805L36.5772 17.9195H34.4411V18.3789H35.1666V18.3789ZM37.7621 20.6843H38.3667V19.5477L39.2937 17.9195H38.6085L38.2377 18.6933C38.1974 18.782 38.141 18.8948 38.0846 19.0399C38.0443 18.9271 37.9959 18.8142 37.9395 18.6852L37.5687 17.9195H36.8674L37.7702 19.5558V20.6843H37.7621ZM41.7039 20.7004L41.9457 19.5639C42.0263 19.1608 42.0746 18.8948 42.0908 18.7659C42.1553 19.1205 42.2036 19.3946 42.2359 19.5719L42.5019 20.7004H43.1548L43.8722 17.9034H43.2515L43.0097 18.9593C42.9291 19.322 42.8727 19.6284 42.8485 19.8782C42.8001 19.5477 42.7517 19.3059 42.7195 19.1447L42.4454 17.9034H41.7925L41.5265 19.0238C41.462 19.2979 41.4056 19.5881 41.3734 19.9105C41.3492 19.6445 41.2928 19.3462 41.2121 18.9996L40.9542 17.9034H40.3174L41.0267 20.7004H41.7039V20.7004ZM44.5332 20.6763L44.7508 20.0153H45.6617L45.8793 20.6763H46.5484L45.565 17.8953H44.8878L43.8641 20.6763H44.5332ZM45.2183 18.5079C45.2828 18.7578 45.3231 18.919 45.3473 18.9996C45.4279 19.2737 45.4843 19.4591 45.5166 19.5558H44.904C44.9604 19.4027 45.0168 19.2253 45.0732 19.0399L45.2183 18.5079ZM47.1207 18.3628V20.6682H47.7575V18.3628H48.4991L48.6039 17.9034H46.371V18.3628H47.1207ZM49.3696 18.0162C49.1762 18.1291 49.023 18.2903 48.9182 18.4837C48.7893 18.7175 48.7248 19.0077 48.7248 19.3462C48.7248 19.7573 48.8376 20.0878 49.0714 20.3377C49.2971 20.5876 49.6034 20.7166 49.9903 20.7166C50.2966 20.7166 50.5626 20.6279 50.7722 20.4586L50.5143 20.1039C50.3611 20.2249 50.1999 20.2813 50.0306 20.2813C49.7807 20.2813 49.6034 20.1765 49.4905 19.975C49.4099 19.8299 49.3696 19.5881 49.3696 19.2334C49.3696 18.9109 49.4261 18.6691 49.5308 18.516C49.6356 18.3628 49.7968 18.2822 50.0064 18.2822C50.1676 18.2822 50.3127 18.3306 50.4578 18.4354L50.7158 18.0565C50.5465 17.9114 50.3047 17.8389 49.9984 17.8389C49.7727 17.8469 49.5631 17.9034 49.3696 18.0162ZM51.8362 20.6763V19.443H52.6101V20.6763H53.1582V17.9034H52.6101V18.9835H51.8362V17.9034H51.2961V20.6763H51.8362ZM18.2793 23.691V22.8607H21.8744L21.7132 23.691H20.5202V27.8423H19.5045V23.691H18.2793ZM22.5596 23.9489C22.358 24.36 22.2613 24.8356 22.2613 25.3757C22.2613 26.1173 22.4548 26.7299 22.8336 27.2296C23.1964 27.6972 23.7364 27.9309 24.4538 27.9309C24.8408 27.9309 25.1712 27.8584 25.4534 27.7052C26.195 27.2941 26.5658 26.5042 26.5658 25.3354C26.5658 24.5535 26.3723 23.9328 25.9934 23.4814C25.6146 23.03 25.0906 22.8043 24.4216 22.8043C24.0266 22.8043 23.6881 22.8849 23.3898 23.0461C23.0351 23.2396 22.7611 23.5378 22.5596 23.9489ZM25.4131 25.3596C25.4131 25.9964 25.3325 26.4558 25.1793 26.7379C25.0261 27.0201 24.7682 27.1652 24.4216 27.1652C24.1798 27.1652 23.9783 27.1087 23.8251 26.9959C23.5268 26.7782 23.3818 26.2382 23.3818 25.3837C23.3818 24.7953 23.4624 24.3439 23.6316 24.0215C23.7848 23.7313 24.0427 23.5862 24.4055 23.5862C24.6473 23.5862 24.8488 23.6587 25.0181 23.8119C25.1471 23.9247 25.2357 24.0618 25.2841 24.223C25.3728 24.4809 25.4131 24.8678 25.4131 25.3596ZM28.8873 27.8503V26.0125H29.4354C29.8707 26.0125 30.2012 25.956 30.4349 25.8513C30.709 25.7223 30.9186 25.5288 31.0717 25.2709C31.2249 25.0129 31.2974 24.7147 31.2974 24.3923C31.2974 23.7958 31.0556 23.3685 30.58 23.1025C30.2898 22.9413 29.8304 22.8607 29.1936 22.8607H27.8797V27.8584H28.8873V27.8503ZM30.0158 23.8603C30.1367 23.9892 30.1931 24.1746 30.1931 24.4084C30.1931 24.6341 30.1528 24.8114 30.0722 24.9323C29.9916 25.0532 29.8948 25.1339 29.782 25.1661C29.7094 25.1822 29.5805 25.1983 29.4031 25.1983H28.8792V23.6587H29.516C29.7336 23.6587 29.8948 23.7232 30.0158 23.8603ZM35.618 27.8503V25.7707C35.6744 25.7787 35.7308 25.7868 35.7792 25.811C35.8679 25.8513 35.9646 25.956 36.0694 26.1173C36.1742 26.2704 36.3515 26.5767 36.6014 27.0362C36.7465 27.2941 36.8996 27.5682 37.0689 27.8584H38.2538C37.6332 26.7944 37.2301 26.1414 37.0528 25.9238C36.9883 25.8513 36.9238 25.7787 36.8432 25.7142C37.1495 25.7062 37.4075 25.5691 37.6332 25.3031C37.8508 25.0291 37.9637 24.7066 37.9637 24.3358C37.9637 23.8925 37.8266 23.5378 37.5606 23.2718C37.2946 23.0058 36.9399 22.8688 36.4966 22.8688L34.6426 22.8607V27.8584H35.618V27.8503ZM36.6175 23.7796C36.8029 23.8764 36.8996 24.0698 36.8996 24.3439C36.8996 24.5615 36.8352 24.7228 36.7142 24.8356C36.5933 24.9485 36.3354 25.0049 35.9565 25.0049H35.618L35.626 23.6587H35.9807C36.2709 23.6668 36.4885 23.7071 36.6175 23.7796ZM40.0675 27.8503L40.4222 26.6654H41.8812L42.2359 27.8503H43.316L41.7442 22.8527H40.656L39.0196 27.8503H40.0675ZM41.1718 23.9489C41.2686 24.3923 41.3411 24.6905 41.3734 24.8275C41.4943 25.3273 41.591 25.6578 41.6474 25.8351H40.6721C40.7607 25.5611 40.8494 25.2467 40.9381 24.9082L41.1718 23.9489ZM44.7508 23.691V27.8423H45.7665V23.691H46.9595L47.1207 22.8607H43.5256V23.691H44.7508ZM51.0382 27.8503V26.9878H49.152V25.6578H50.5626V24.8356H49.1359V23.6829H50.8447L50.9737 22.8688H48.1363V27.8584H51.0382V27.8503ZM53.4403 27.8503C53.7305 27.8503 53.9643 27.8423 54.1577 27.8181C54.6575 27.7697 55.0605 27.5279 55.3749 27.1007C55.7054 26.6412 55.8747 26.077 55.8747 25.3999C55.8747 24.5132 55.649 23.8522 55.1976 23.4088C54.8912 23.1106 54.5285 22.9494 54.1094 22.9171C53.8675 22.901 53.5773 22.8849 53.2388 22.8849H52.2312V27.8423H53.4403V27.8503ZM54.4963 24.094C54.6655 24.3681 54.7462 24.8356 54.7462 25.4966C54.7462 26.5203 54.4237 27.0362 53.7869 27.0362H53.2469V23.6829H53.7063C54.061 23.6829 54.327 23.8199 54.4963 24.094Z" stroke="white" stroke-width="0.0987443" stroke-miterlimit="10"/>
</svg>
